PathFileType	4	(X/Y/Z)	OpenSim_Sub04_EMGBaseline_Accel.trc
DataRate	CameraRate	NumFrames	NumMarkers	Units	OrigDataRate	OrigDataStartFrame	OrigNumFrames
100	100	20	8	m	100	1986	7941
Frame#	Time	torso_imu_offset_imu	pelvis_imu_offset_imu	tibia_r_imu_offset_imu	femur_r_imu_offset_imu	tibia_l_imu_offset_imu	femur_l_imu_offset_imu	toes_r_imu_offset_imu	toes_l_imu_offset_imu
				X1	Y1	Z1	X2	Y2	Z2	X3	Y3	Z3	X4	Y4	Z4	X5	Y5	Z5	X6	Y6	Z6	X7	Y7	Z7	X8		Y8	Z8	

1986	19.85000000	-7.80438428	0.22262072	9.42442951	10.09739590	1.63536641	3.16438946	10.67888280	2.49570655	2.22691205	9.46335983	-3.44956932	-0.43962858	11.10944262	1.41690895	4.22317410	9.69367347	1.46998703	-0.82114026	6.98028366	-2.02169806	7.73036559	4.89863168	-3.01243584	13.04610278
1987	19.86000000	-7.83652140	0.24689486	9.27775052	10.07369596	1.20641270	3.59364958	10.96867991	2.16637686	2.66645437	9.50742610	-3.55665417	-0.31054866	11.06290684	-0.07175027	4.22224089	10.55202017	0.46193519	-0.62172906	6.56675507	-2.60013304	7.86268650	8.72077146	-4.80378211	15.49965466
1988	19.87000000	-7.99161860	0.22512480	9.36032897	9.92806231	0.48685093	4.09198935	11.37532368	1.75240569	3.14632604	9.77555476	-3.55150120	-0.32041775	11.07354141	-2.36075070	4.06333751	11.93296564	-0.15011701	-0.42803648	5.34446200	-3.86806393	7.92627577	10.29968910	-2.42779402	15.66178501
1989	19.88000000	-8.36498807	0.04440792	9.27462645	9.63447273	-0.14312310	4.80812333	11.98403550	1.18222040	2.64942943	9.99860764	-3.36934075	-0.19874597	11.10253584	-4.44296851	3.26924917	13.40130870	0.12744948	-0.52459004	5.79437695	-3.74241700	8.79157306	7.38861876	1.22277701	12.80102623
1990	19.89000000	-8.69319535	-0.00267783	9.36234535	9.60539101	-0.67443055	5.36145934	12.89188297	0.75634187	2.07513886	10.28822016	-3.23651978	0.05602012	10.87895755	-4.72381869	1.67998614	14.31159443	1.00447714	-0.77465857	9.13096935	-1.80933243	8.52459053	7.80371986	11.75272277	12.85584168
1991	19.90000000	-8.88749882	-0.09952553	9.51974221	9.61829733	-1.12861204	5.91035819	13.91122135	0.51089411	2.72587964	10.30768167	-3.28301404	0.16470450	11.10261096	-3.32849059	0.04634102	14.07315262	2.21289528	-1.03326016	8.88709427	-1.30734041	8.47482996	11.99722199	16.74211028	11.93675342
1992	19.91000000	-8.81889602	-0.31003420	9.41896105	9.51136444	-1.48241469	6.22057362	14.39934844	1.00164265	2.51469015	10.01747219	-3.47284877	0.39878540	11.95274482	-1.45194390	-1.16772978	13.10284842	3.65084250	-1.93072324	10.58418195	-2.28005165	8.30148162	6.14591604	8.10754240	10.92146409
1993	19.92000000	-8.58917498	-0.34973522	9.15864480	9.28525366	-1.83418111	6.01283333	14.15806064	1.89653639	1.37401440	9.62402432	-3.53923811	0.94376736	12.65178338	-0.24777681	-1.54375556	10.96015019	4.84102691	-3.04740449	11.99872678	-2.15600178	8.63146671	7.97016868	-0.15430002	12.67437372
1994	19.93000000	-8.32578059	-0.44736399	8.57020139	8.94565089	-2.04613410	5.63755195	13.20773102	2.84826373	1.19706358	9.36822864	-3.39555863	1.24136884	12.32969676	0.02266217	-0.63979877	8.70927348	4.52325638	-3.33196107	15.67820670	-2.60773621	11.30829085	10.17135053	-2.49403283	11.27712788
1995	19.94000000	-8.16126604	-0.63606178	8.10301531	8.43971111	-1.85903417	5.43648708	11.87405146	3.96069281	0.83748081	9.54789915	-3.09600236	1.29648719	10.83737015	-1.01194622	0.15440086	8.06153319	2.82469408	-2.52242535	11.24060049	-3.70290710	8.85426728	7.47555950	3.13251942	11.84161243
1996	19.95000000	-8.28313948	-0.59102126	7.94404840	8.08189346	-1.46984848	5.24511077	10.50471062	4.98302561	-0.24859521	9.96073866	-2.72827448	1.09832060	9.36874699	-2.09728366	-1.35874503	8.64321617	0.78810730	-1.69648269	12.26988638	-3.92353059	9.01128111	4.44123231	3.45375145	11.70914367
1997	19.96000000	-8.47676172	-0.57820150	7.73913662	7.92848417	-1.02390100	5.06509290	9.34900395	5.93536175	-0.16510627	10.24930635	-2.26700591	0.87299067	9.16564893	-3.27370170	-2.34885365	9.51602114	-0.54225030	-1.93825371	14.57406876	-2.45652449	9.09497225	5.57892030	2.97889760	11.71274567
1998	19.97000000	-8.26809990	-0.57974339	7.64297580	7.81619465	-0.64821437	4.85022232	8.06633037	7.05867045	-0.09611136	10.38144810	-1.70114231	0.87892502	9.60454389	-4.39700690	-1.78774053	9.81215525	-1.63735503	-2.65080771	14.55600609	-4.44376710	8.13138664	5.82822547	2.83185262	10.76098570
1999	19.98000000	-8.09342625	-0.62988725	7.59020961	7.96856798	-0.21285215	4.73933221	6.76358197	8.14515964	-0.20007595	10.42317973	-1.17065547	1.00252823	9.31657522	-4.79802325	-0.76557259	9.25148503	-2.49971899	-3.38457620	10.02637038	-4.14994854	5.98553792	5.74727584	2.89534397	10.97091639
2000	19.99000000	-8.17078188	-0.65967715	7.60489136	8.46089370	0.09275802	4.76598608	5.81029701	9.03186988	0.12199685	10.67545254	-0.75884493	1.10177231	8.46209744	-4.32116983	-0.66211257	8.45494329	-2.55669432	-3.84163222	5.30707577	-1.94740257	5.95483232	5.53579511	2.84641795	10.60172955
2001	20	-8.35368944	-0.75400132	7.67154563	9.08363057	0.23434521	5.04723180	5.27630486	9.76316186	0.06641491	11.21656601	-0.45671897	1.31733609	8.76326507	-4.05721315	-0.60489026	8.12001409	-2.26263737	-4.12631585	11.21221499	-3.39684604	12.51317557	5.30399852	3.33823948	10.74392025
2002	20.01000000	-8.43415227	-0.82936513	7.89472392	9.85295259	0.48898381	5.25841109	5.18750045	9.77852989	-0.20089636	11.98665092	-0.43117211	1.45161358	9.48680931	-3.96886384	-1.22226223	8.23156455	-1.79460013	-4.23287946	14.24603565	-8.86767767	11.78391150	5.16321646	2.65666105	10.95282955
2003	20.02000000	-8.59094752	-0.91192322	8.08447835	10.68165288	0.64197359	5.25882443	5.36849333	9.28982372	0.82421094	12.62186693	-0.48553964	1.20983231	9.72152968	-3.33573233	-1.86881123	8.69636702	-0.91752033	-3.96813658	-1.65447730	-5.36750869	10.11469967	5.63769365	3.12102011	10.51884728
2004	20.03000000	-8.75685596	-0.94902093	8.31901846	11.19591487	0.64827568	5.04371713	5.57751911	8.77631899	1.38562168	12.83192622	-0.57757250	0.84905890	9.93128320	-2.82068006	-2.08872550	9.32309974	0.21319200	-3.64407376	3.75853385	-4.31726564	9.33430848	5.23210832	3.56019302	10.56088788
2005	20.04000000	-8.74234334	-0.89005317	8.33902458	11.29767757	0.65412166	4.76253527	5.83383338	8.65492445	2.08384870	12.38135928	-0.58564984	0.95327150	10.12518139	-2.36559138	-1.87148831	9.87299847	1.28589553	-3.59102740	6.18672853	-2.03804828	10.52272150	5.32797752	3.62305631	10.43832772
